<?xml version="1.0" encoding="utf-8"?>
<!-- Generator: Adobe Illustrator 27.5.0, SVG Export Plug-In . SVG Version: 6.00 Build 0)  -->
<svg version="1.1" xmlns="http://www.w3.org/2000/svg" xmlns:xlink="http://www.w3.org/1999/xlink" x="0px" y="0px"
	 viewBox="0 0 500 500" style="enable-background:new 0 0 500 500;" xml:space="preserve">
<g id="BACKGROUND">
	<rect style="fill:#847B7C;" width="500.532" height="500"/>
</g>
<g id="OBJECTS">
	<g>
		<path style="fill:none;" d="M238.671,589.645c-3.256,0-5.895,2.639-5.895,5.895c0,3.256,2.639,5.895,5.895,5.895
			c3.255,0,5.895-2.639,5.895-5.895C244.566,592.284,241.927,589.645,238.671,589.645z"/>
		
			<ellipse transform="matrix(0.9905 -0.1377 0.1377 0.9905 -79.5305 41.2593)" style="fill:none;" cx="258.49" cy="595.54" rx="5.895" ry="5.895"/>
		<path style="fill:none;" d="M248.8,604.003c-1.055,0-1.941,0.916-2.045,2.122c-0.044,0.514-0.068,1.11-0.068,1.8
			c0,1.059,0.229,1.182,0.607,0.996c0.958-0.471,2.056-0.469,3.014,0.001c0.377,0.185,0.605,0.06,0.605-0.996
			c0-0.691-0.023-1.286-0.068-1.8C250.742,604.919,249.855,604.003,248.8,604.003z"/>
	</g>
	<g>
		<path style="fill:none;" d="M238.671,589.645c-3.256,0-5.895,2.639-5.895,5.895c0,3.256,2.639,5.895,5.895,5.895
			c3.255,0,5.895-2.639,5.895-5.895C244.566,592.284,241.927,589.645,238.671,589.645z"/>
		
			<ellipse transform="matrix(0.9905 -0.1377 0.1377 0.9905 -79.5305 41.2593)" style="fill:none;" cx="258.49" cy="595.54" rx="5.895" ry="5.895"/>
		<path style="fill:none;" d="M248.8,604.003c-1.055,0-1.941,0.916-2.045,2.122c-0.044,0.514-0.068,1.11-0.068,1.8
			c0,1.059,0.229,1.182,0.607,0.996c0.958-0.471,2.056-0.469,3.014,0.001c0.377,0.185,0.605,0.06,0.605-0.996
			c0-0.691-0.023-1.286-0.068-1.8C250.742,604.919,249.855,604.003,248.8,604.003z"/>
	</g>
	<g>
		<rect y="424.742" style="fill:#756D6E;" width="500.532" height="75.258"/>
		<g>
			<path style="fill:#473E3E;" d="M279.232,262.134h-27.739h-2.853h-27.739c0,0-47.371,17.649-47.371,70.009v30.592h75.11h2.853
				h75.11v-30.592C326.603,279.783,279.232,262.134,279.232,262.134z"/>
			<path style="fill:#534747;" d="M322.223,196.096c-11.301-53.342-39.578-93.123-73.584-98.096
				c-34.005,4.973-62.282,44.753-73.583,98.096c-11.301,53.342,43.849,71.425,43.849,71.425l29.734,16.274l29.735-16.274
				C278.374,267.521,333.524,249.438,322.223,196.096z"/>
			<path style="fill:#332D2D;" d="M268.086,147.698c0,0-6.482-8.589-19.447-8.589s-19.447,8.589-19.447,8.589
				c-25.003,23.507-50.006,83.658-19.447,100.836c30.559,17.178,38.894,35.26,38.894,35.26s8.334-18.082,38.894-35.26
				C318.092,231.356,293.089,171.205,268.086,147.698z"/>
			<g>
				<defs>
					<path id="SVGID_1_" d="M268.086,147.698c0,0-6.482-8.589-19.447-8.589s-19.447,8.589-19.447,8.589
						c-25.003,23.507-50.006,83.658-19.447,100.836c30.559,17.178,38.894,35.26,38.894,35.26s8.334-18.082,38.894-35.26
						C318.092,231.356,293.089,171.205,268.086,147.698z"/>
				</defs>
				<clipPath id="SVGID_00000104704725424573232910000004879511831852714144_">
					<use xlink:href="#SVGID_1_"  style="overflow:visible;"/>
				</clipPath>
				<path style="clip-path:url(#SVGID_00000104704725424573232910000004879511831852714144_);fill:#FBC39D;" d="M257.763,226.447
					h-18.248c-3.686,0-6.674,3.355-6.674,7.493v32.119c0,9.795,7.073,17.736,15.799,17.736s15.799-7.94,15.799-17.736V233.94
					C264.438,229.802,261.45,226.447,257.763,226.447z"/>
				<path style="clip-path:url(#SVGID_00000104704725424573232910000004879511831852714144_);fill:#F9AC7F;" d="M232.43,243.037
					c0,0,1.279,9.304,15.799,9.304c14.52,0,15.8-9.304,15.8-9.304H232.43z"/>
				<path style="clip-path:url(#SVGID_00000104704725424573232910000004879511831852714144_);fill:#F9AC7F;" d="M294.034,181.424
					c-5.511,0-9.978,4.644-9.978,10.374c0,5.73,4.468,10.375,9.978,10.375c5.511,0,9.978-4.645,9.978-10.375
					C304.012,186.069,299.545,181.424,294.034,181.424z"/>
				<path style="clip-path:url(#SVGID_00000104704725424573232910000004879511831852714144_);fill:#F9AC7F;" d="M203.28,181.424
					c-5.511,0-9.979,4.644-9.979,10.374c0,5.73,4.468,10.375,9.979,10.375c5.511,0,9.978-4.645,9.978-10.375
					C213.258,186.069,208.791,181.424,203.28,181.424z"/>
				<path style="clip-path:url(#SVGID_00000104704725424573232910000004879511831852714144_);fill:#FBC39D;" d="M245.008,246.019
					l-0.078,0.076c1.225,0.1,2.459,0.164,3.71,0.164l0,0c3.76,0,7.409-0.467,10.896-1.336c0.015-0.03,0.028-0.062,0.043-0.092
					c19.301-4.832,33.586-22.15,33.586-42.777v-51.697c0-24.369-19.934-20.486-44.525-20.486l0,0
					c-24.59,0-44.525-3.882-44.525,20.486v51.697C204.115,225.209,222.118,244.185,245.008,246.019z"/>
				<path style="clip-path:url(#SVGID_00000104704725424573232910000004879511831852714144_);fill:#F9AC7F;" d="M249.519,213.018
					h-2.579c-3.048,0-5.407-2.672-5.029-5.696l1.29-12.358c0.317-2.536,2.473-4.439,5.029-4.439l0,0
					c2.556,0,4.712,1.903,5.029,4.439l1.29,12.358C254.926,210.346,252.567,213.018,249.519,213.018z"/>
				<path style="clip-path:url(#SVGID_00000104704725424573232910000004879511831852714144_);fill:#3B1000;" d="M217.114,140.12
					c0,0-2.329,15.769,33.509,24.908c0,0-7.038-6.995-7.409-10.243c0,0,5.183,8.745,28.553,12.035c0,0-10.643-6.517-9.986-10.227
					c0,0,16.078,14.365,31.384,10.092l-16.116-20.315c-11.199-14.116-30.476-18.964-47.02-11.824L217.114,140.12z"/>
				<path style="opacity:0.27;clip-path:url(#SVGID_00000104704725424573232910000004879511831852714144_);fill:#E1926A;" d="
					M193.742,204.526c0,0,17.26-36.712,53.9-36.782c36.602-0.071,53.989,34.62,53.989,34.62s-8.531-86.847-54.52-86.847
					S193.742,204.526,193.742,204.526z"/>
				<g style="clip-path:url(#SVGID_00000104704725424573232910000004879511831852714144_);">
					<path style="fill:#150D03;" d="M229.645,208.143h-11.463c-9.028,0-16.347-7.319-16.347-16.347v-7.637
						c0-4.802,3.892-8.694,8.694-8.694h23.543c5.381,0,9.743,4.362,9.743,9.743v8.765
						C243.815,201.799,237.471,208.143,229.645,208.143z"/>
					<path style="fill:#150D03;" d="M266.695,208.143h11.463c9.028,0,16.347-7.319,16.347-16.347v-7.637
						c0-4.802-3.892-8.694-8.694-8.694h-23.543c-5.381,0-9.743,4.362-9.743,9.743v8.765
						C252.526,201.799,258.87,208.143,266.695,208.143z"/>
					<rect x="242.658" y="184.382" style="fill:#150D03;" width="10.634" height="7.692"/>
				</g>
				
					<line style="clip-path:url(#SVGID_00000104704725424573232910000004879511831852714144_);fill:none;stroke:#E58B5E;stroke-width:1.9495;stroke-linecap:round;stroke-linejoin:round;stroke-miterlimit:10;" x1="240.49" y1="224.498" x2="256.788" y2="224.498"/>
			</g>
		</g>
		
			<linearGradient id="SVGID_00000080189914547089045940000014298108443911346110_" gradientUnits="userSpaceOnUse" x1="251.2661" y1="410.955" x2="251.2661" y2="98">
			<stop  offset="0.0016" style="stop-color:#FFFFFF;stop-opacity:0.8"/>
			<stop  offset="0.8844" style="stop-color:#FFFFFF;stop-opacity:0"/>
		</linearGradient>
		<polygon style="opacity:0.34;fill:url(#SVGID_00000080189914547089045940000014298108443911346110_);" points="146.284,410.955 
			26.264,98 476.268,98 353.853,410.955 		"/>
		<g>
			<path style="fill:#BFBFBF;" d="M363.722,424.742H137.754c-4.639,0-8.4-3.761-8.4-8.4v-0.396c0-4.639,3.761-8.4,8.4-8.4h225.968
				c4.639,0,8.4,3.761,8.4,8.4v0.396C372.122,420.981,368.361,424.742,363.722,424.742z"/>
			<path style="fill:#D8D8D8;" d="M343.043,424.742H157.047c-5.957,0-10.787-4.829-10.787-10.787V307.179
				c0-5.957,4.829-10.786,10.787-10.786h185.996c5.957,0,10.787,4.829,10.787,10.786v106.776
				C353.829,419.912,349,424.742,343.043,424.742z"/>
			<path style="fill:#F9F9F9;" d="M249.758,379.629c-9.257,0-16.788-7.531-16.788-16.788s7.531-16.788,16.788-16.788
				c9.256,0,16.788,7.531,16.788,16.788S259.014,379.629,249.758,379.629z"/>
			<path style="fill:#1E1C1C;" d="M261.643,340.389c-7.984-4.259-17.617-4.259-25.601,0c-8.009,4.273-15.494,13.01-7.913,30.623
				c0,0-4.063,13.499,8.816,10.468c0,0,2.066-0.344,1.929,2.755v0.045v1.813c0,1.204,0.977,2.181,2.181,2.181h0.065
				c1.205,0,2.181-0.977,2.181-2.181v-1.813h1.091h2.292v1.813c0,1.204,0.977,2.181,2.181,2.181h0.065
				c1.204,0,2.181-0.977,2.181-2.181v-1.813h2.181h0.72h0.338v1.813c0,1.204,0.977,2.181,2.181,2.181h0.065
				c1.204,0,2.181-0.977,2.181-2.181v-1.813h0.034v-0.045c-0.138-3.099,1.929-2.755,1.929-2.755
				c12.878,3.03,8.816-10.468,8.816-10.468C277.137,353.399,269.653,344.662,261.643,340.389z M239.297,371.326
				c-3.085,0-5.587-2.501-5.587-5.587c0-3.086,2.501-5.587,5.587-5.587c3.086,0,5.587,2.501,5.587,5.587
				C244.884,368.825,242.382,371.326,239.297,371.326z M246.959,375.772c0.099-1.143,0.939-2.011,1.939-2.011
				c1,0,1.84,0.868,1.939,2.011c0.042,0.487,0.064,1.052,0.064,1.706c0,1.002-0.216,1.12-0.574,0.944
				c-0.908-0.446-1.949-0.448-2.856-0.001c-0.359,0.177-0.576,0.06-0.576-0.944C246.894,376.824,246.917,376.26,246.959,375.772z
				 M258.081,371.326c-3.085,0-5.587-2.501-5.587-5.587c0-3.086,2.501-5.587,5.587-5.587c3.086,0,5.587,2.501,5.587,5.587
				C263.668,368.825,261.167,371.326,258.081,371.326z"/>
		</g>
	</g>
</g>
<g id="DESIGNED_BY_FREEPIK">
	<g>
		<g>
			<g>
				<path style="fill:#150D03;" d="M180.308,472.293v-0.161c-0.218,0.249-0.432,0.452-0.644,0.608
					c-0.212,0.157-0.441,0.276-0.689,0.357c-0.247,0.082-0.517,0.122-0.81,0.122c-0.388,0-0.747-0.082-1.078-0.246
					c-0.33-0.164-0.616-0.399-0.857-0.704c-0.242-0.305-0.425-0.662-0.549-1.074c-0.124-0.412-0.187-0.857-0.187-1.335
					c0-1.013,0.247-1.804,0.742-2.369c0.495-0.565,1.146-0.848,1.953-0.848c0.467,0,0.861,0.081,1.181,0.24
					c0.321,0.16,0.633,0.408,0.938,0.739v-2.392c0-0.333,0.066-0.583,0.199-0.754c0.132-0.17,0.321-0.255,0.567-0.255
					c0.245,0,0.434,0.078,0.567,0.234c0.133,0.157,0.199,0.386,0.199,0.691v7.147c0,0.309-0.071,0.54-0.214,0.694
					c-0.143,0.154-0.326,0.231-0.552,0.231c-0.221,0-0.405-0.08-0.549-0.24C180.38,472.817,180.308,472.589,180.308,472.293z
					 M177.12,469.912c0,0.439,0.068,0.813,0.205,1.122c0.137,0.309,0.324,0.541,0.561,0.697c0.238,0.157,0.497,0.236,0.778,0.236
					c0.285,0,0.545-0.074,0.781-0.223c0.235-0.148,0.423-0.376,0.564-0.682c0.141-0.307,0.21-0.691,0.21-1.149
					c0-0.432-0.07-0.803-0.21-1.114c-0.14-0.31-0.33-0.547-0.57-0.712c-0.24-0.164-0.502-0.245-0.786-0.245
					c-0.297,0-0.562,0.084-0.796,0.252c-0.234,0.168-0.415,0.409-0.543,0.724C177.184,469.131,177.12,469.496,177.12,469.912z"/>
				<path style="fill:#150D03;" d="M187.454,470.322h-3.17c0.004,0.367,0.078,0.692,0.223,0.973
					c0.144,0.281,0.336,0.493,0.576,0.635c0.24,0.143,0.504,0.213,0.793,0.213c0.194,0,0.371-0.022,0.531-0.067
					c0.16-0.046,0.315-0.117,0.466-0.214c0.15-0.097,0.289-0.201,0.415-0.312c0.126-0.111,0.29-0.262,0.493-0.452
					c0.083-0.071,0.202-0.107,0.357-0.107c0.166,0,0.3,0.046,0.403,0.137c0.103,0.092,0.155,0.219,0.155,0.386
					c0,0.146-0.058,0.317-0.172,0.513c-0.116,0.196-0.289,0.384-0.52,0.564c-0.232,0.18-0.522,0.329-0.873,0.448
					c-0.35,0.119-0.753,0.178-1.208,0.178c-1.04,0-1.85-0.297-2.428-0.891c-0.578-0.593-0.866-1.399-0.866-2.416
					c0-0.479,0.071-0.924,0.213-1.332c0.143-0.41,0.351-0.761,0.623-1.054c0.273-0.293,0.609-0.517,1.01-0.674
					c0.399-0.156,0.843-0.234,1.33-0.234c0.633,0,1.176,0.132,1.629,0.4c0.454,0.267,0.794,0.612,1.019,1.035
					c0.225,0.424,0.339,0.856,0.339,1.294c0,0.408-0.117,0.672-0.35,0.793C188.206,470.261,187.878,470.322,187.454,470.322z
					 M184.284,469.402h2.939c-0.039-0.554-0.189-0.969-0.448-1.244c-0.259-0.275-0.6-0.413-1.024-0.413
					c-0.404,0-0.735,0.139-0.994,0.418C184.497,468.442,184.34,468.855,184.284,469.402z"/>
				<path style="fill:#150D03;" d="M194.838,471.099c0,0.447-0.108,0.831-0.327,1.149c-0.217,0.319-0.539,0.56-0.965,0.725
					c-0.425,0.164-0.943,0.246-1.552,0.246c-0.582,0-1.08-0.089-1.496-0.267c-0.415-0.178-0.722-0.401-0.92-0.667
					c-0.198-0.268-0.297-0.535-0.297-0.805c0-0.178,0.063-0.33,0.19-0.456c0.126-0.126,0.287-0.19,0.481-0.19
					c0.17,0,0.3,0.042,0.391,0.125c0.091,0.083,0.179,0.2,0.261,0.35c0.166,0.29,0.366,0.504,0.597,0.648
					c0.231,0.142,0.547,0.214,0.947,0.214c0.324,0,0.59-0.073,0.798-0.217c0.208-0.145,0.311-0.31,0.311-0.496
					c0-0.285-0.107-0.492-0.324-0.622c-0.216-0.131-0.571-0.256-1.066-0.375c-0.558-0.138-1.012-0.284-1.362-0.436
					c-0.35-0.151-0.63-0.353-0.84-0.602c-0.21-0.25-0.315-0.557-0.315-0.92c0-0.324,0.097-0.631,0.291-0.92
					c0.194-0.288,0.48-0.519,0.859-0.691c0.377-0.173,0.833-0.259,1.367-0.259c0.42,0,0.797,0.043,1.131,0.131
					c0.335,0.086,0.614,0.204,0.837,0.35c0.224,0.146,0.394,0.308,0.51,0.486c0.117,0.178,0.175,0.352,0.175,0.523
					c0,0.185-0.062,0.338-0.186,0.457c-0.124,0.118-0.301,0.178-0.532,0.178c-0.166,0-0.308-0.048-0.424-0.143
					c-0.117-0.095-0.25-0.237-0.401-0.427c-0.123-0.158-0.266-0.285-0.433-0.38c-0.166-0.095-0.392-0.142-0.677-0.142
					c-0.293,0-0.536,0.062-0.73,0.187c-0.194,0.124-0.291,0.279-0.291,0.465c0,0.171,0.071,0.31,0.213,0.419
					c0.143,0.109,0.334,0.2,0.576,0.27c0.242,0.071,0.573,0.157,0.997,0.261c0.502,0.123,0.912,0.27,1.231,0.44
					c0.318,0.17,0.56,0.371,0.725,0.603C194.756,470.538,194.838,470.802,194.838,471.099z"/>
				<path style="fill:#150D03;" d="M196.494,465.876c-0.225,0-0.418-0.07-0.579-0.208c-0.16-0.138-0.24-0.334-0.24-0.588
					c0-0.23,0.082-0.418,0.246-0.567c0.164-0.149,0.355-0.223,0.573-0.223c0.21,0,0.396,0.067,0.558,0.202
					c0.162,0.135,0.244,0.33,0.244,0.588c0,0.25-0.08,0.444-0.238,0.585C196.899,465.805,196.711,465.876,196.494,465.876z
					 M197.295,467.549v4.683c0,0.325-0.077,0.571-0.232,0.737c-0.155,0.166-0.35,0.249-0.588,0.249
					c-0.238,0-0.431-0.085-0.579-0.255c-0.149-0.17-0.222-0.414-0.222-0.73v-4.636c0-0.32,0.074-0.561,0.222-0.724
					c0.148-0.162,0.341-0.243,0.579-0.243c0.238,0,0.433,0.081,0.588,0.243C197.218,467.035,197.295,467.261,197.295,467.549z"/>
				<path style="fill:#150D03;" d="M204.395,467.817v4.707c0,0.538-0.058,1.001-0.173,1.39c-0.114,0.387-0.298,0.708-0.552,0.961
					c-0.253,0.253-0.585,0.441-0.994,0.563c-0.41,0.123-0.919,0.184-1.529,0.184c-0.558,0-1.057-0.078-1.496-0.234
					c-0.439-0.157-0.777-0.358-1.015-0.605c-0.237-0.247-0.357-0.502-0.357-0.763c0-0.198,0.068-0.36,0.202-0.483
					c0.134-0.125,0.297-0.187,0.486-0.187c0.237,0,0.445,0.105,0.623,0.314c0.087,0.107,0.177,0.216,0.27,0.324
					c0.093,0.109,0.197,0.202,0.309,0.28c0.113,0.076,0.249,0.134,0.407,0.172c0.158,0.037,0.341,0.056,0.546,0.056
					c0.42,0,0.745-0.058,0.977-0.175c0.232-0.117,0.394-0.28,0.487-0.49c0.093-0.209,0.147-0.433,0.163-0.673
					c0.016-0.24,0.027-0.624,0.035-1.155c-0.25,0.349-0.537,0.615-0.864,0.797c-0.326,0.182-0.715,0.273-1.166,0.273
					c-0.542,0-1.016-0.139-1.422-0.416c-0.405-0.277-0.717-0.665-0.935-1.163c-0.218-0.499-0.326-1.074-0.326-1.727
					c0-0.486,0.066-0.927,0.198-1.318c0.133-0.393,0.322-0.723,0.567-0.992c0.245-0.269,0.528-0.472,0.849-0.608
					c0.321-0.136,0.673-0.204,1.057-0.204c0.459,0,0.857,0.089,1.193,0.264c0.336,0.177,0.649,0.453,0.938,0.829v-0.22
					c0-0.281,0.069-0.498,0.208-0.653c0.139-0.154,0.317-0.231,0.535-0.231c0.313,0,0.52,0.103,0.623,0.306
					C204.343,467.139,204.395,467.433,204.395,467.817z M199.699,469.871c0,0.657,0.143,1.154,0.43,1.49
					c0.287,0.337,0.658,0.505,1.113,0.505c0.269,0,0.523-0.073,0.762-0.217c0.24-0.145,0.435-0.362,0.585-0.653
					c0.15-0.291,0.225-0.644,0.225-1.06c0-0.66-0.145-1.176-0.436-1.543c-0.291-0.368-0.674-0.552-1.149-0.552
					c-0.463,0-0.834,0.176-1.113,0.529C199.838,468.721,199.699,469.222,199.699,469.871z"/>
				<path style="fill:#150D03;" d="M206.97,467.526v0.196c0.285-0.376,0.596-0.652,0.935-0.828c0.338-0.176,0.727-0.264,1.166-0.264
					c0.428,0,0.809,0.093,1.146,0.28c0.336,0.186,0.588,0.449,0.753,0.789c0.108,0.198,0.176,0.413,0.208,0.641
					c0.032,0.23,0.048,0.522,0.048,0.879v3.015c0,0.325-0.075,0.571-0.223,0.737c-0.148,0.166-0.341,0.249-0.579,0.249
					c-0.242,0-0.437-0.085-0.588-0.255c-0.151-0.17-0.226-0.414-0.226-0.73v-2.701c0-0.534-0.074-0.943-0.223-1.226
					c-0.149-0.283-0.444-0.425-0.888-0.425c-0.288,0-0.552,0.086-0.789,0.258c-0.237,0.173-0.412,0.41-0.522,0.71
					c-0.079,0.242-0.119,0.692-0.119,1.353v2.03c0,0.328-0.077,0.576-0.228,0.74c-0.152,0.164-0.349,0.246-0.59,0.246
					c-0.234,0-0.426-0.085-0.576-0.255c-0.15-0.17-0.225-0.414-0.225-0.73v-4.683c0-0.309,0.067-0.54,0.202-0.692
					c0.135-0.152,0.319-0.228,0.552-0.228c0.143,0,0.272,0.034,0.387,0.101c0.114,0.068,0.207,0.169,0.276,0.302
					C206.935,467.167,206.97,467.332,206.97,467.526z"/>
				<path style="fill:#150D03;" d="M216.829,470.322h-3.17c0.004,0.367,0.078,0.692,0.223,0.973
					c0.144,0.281,0.336,0.493,0.576,0.635c0.239,0.143,0.503,0.213,0.792,0.213c0.194,0,0.371-0.022,0.532-0.067
					c0.16-0.046,0.315-0.117,0.466-0.214c0.15-0.097,0.288-0.201,0.416-0.312c0.126-0.111,0.29-0.262,0.492-0.452
					c0.083-0.071,0.202-0.107,0.356-0.107c0.166,0,0.301,0.046,0.404,0.137c0.103,0.092,0.154,0.219,0.154,0.386
					c0,0.146-0.057,0.317-0.172,0.513c-0.115,0.196-0.288,0.384-0.52,0.564c-0.232,0.18-0.522,0.329-0.872,0.448
					c-0.35,0.119-0.753,0.178-1.208,0.178c-1.041,0-1.85-0.297-2.428-0.891c-0.577-0.593-0.866-1.399-0.866-2.416
					c0-0.479,0.071-0.924,0.214-1.332c0.143-0.41,0.351-0.761,0.624-1.054c0.273-0.293,0.609-0.517,1.009-0.674
					c0.399-0.156,0.843-0.234,1.33-0.234c0.633,0,1.176,0.132,1.629,0.4c0.454,0.267,0.793,0.612,1.019,1.035
					c0.225,0.424,0.338,0.856,0.338,1.294c0,0.408-0.117,0.672-0.35,0.793C217.581,470.261,217.253,470.322,216.829,470.322z
					 M213.659,469.402h2.938c-0.039-0.554-0.189-0.969-0.448-1.244c-0.259-0.275-0.601-0.413-1.024-0.413
					c-0.404,0-0.736,0.139-0.995,0.418C213.871,468.442,213.715,468.855,213.659,469.402z"/>
				<path style="fill:#150D03;" d="M223.435,472.293v-0.161c-0.218,0.249-0.432,0.452-0.644,0.608
					c-0.212,0.157-0.441,0.276-0.688,0.357c-0.247,0.082-0.517,0.122-0.81,0.122c-0.388,0-0.747-0.082-1.078-0.246
					c-0.331-0.164-0.616-0.399-0.858-0.704c-0.242-0.305-0.424-0.662-0.549-1.074c-0.125-0.412-0.187-0.857-0.187-1.335
					c0-1.013,0.247-1.804,0.742-2.369c0.495-0.565,1.146-0.848,1.953-0.848c0.467,0,0.861,0.081,1.181,0.24
					c0.32,0.16,0.633,0.408,0.938,0.739v-2.392c0-0.333,0.066-0.583,0.199-0.754c0.132-0.17,0.322-0.255,0.567-0.255
					c0.245,0,0.434,0.078,0.567,0.234c0.132,0.157,0.199,0.386,0.199,0.691v7.147c0,0.309-0.071,0.54-0.214,0.694
					c-0.143,0.154-0.326,0.231-0.552,0.231c-0.222,0-0.405-0.08-0.549-0.24C223.507,472.817,223.435,472.589,223.435,472.293z
					 M220.248,469.912c0,0.439,0.068,0.813,0.204,1.122c0.137,0.309,0.324,0.541,0.562,0.697c0.237,0.157,0.496,0.236,0.777,0.236
					c0.285,0,0.546-0.074,0.781-0.223c0.236-0.148,0.424-0.376,0.564-0.682c0.141-0.307,0.211-0.691,0.211-1.149
					c0-0.432-0.07-0.803-0.211-1.114c-0.14-0.31-0.33-0.547-0.57-0.712c-0.24-0.164-0.502-0.245-0.787-0.245
					c-0.296,0-0.562,0.084-0.795,0.252c-0.233,0.168-0.414,0.409-0.543,0.724C220.312,469.131,220.248,469.496,220.248,469.912z"/>
				<path style="fill:#150D03;" d="M230.059,465.145v2.475c0.304-0.316,0.615-0.559,0.932-0.727
					c0.316-0.168,0.709-0.252,1.175-0.252c0.538,0,1.01,0.128,1.416,0.382c0.405,0.256,0.72,0.626,0.944,1.111
					c0.223,0.484,0.336,1.06,0.336,1.725c0,0.491-0.063,0.94-0.187,1.35c-0.125,0.409-0.306,0.765-0.543,1.065
					c-0.238,0.301-0.525,0.534-0.864,0.698c-0.339,0.164-0.712,0.246-1.119,0.246c-0.25,0-0.484-0.029-0.703-0.089
					c-0.22-0.059-0.407-0.137-0.561-0.234c-0.154-0.096-0.286-0.197-0.395-0.3c-0.109-0.103-0.253-0.258-0.431-0.463v0.161
					c0,0.304-0.073,0.535-0.22,0.692c-0.146,0.156-0.332,0.234-0.558,0.234c-0.229,0-0.413-0.077-0.549-0.234
					c-0.137-0.157-0.205-0.388-0.205-0.692v-7.077c0-0.328,0.066-0.577,0.198-0.745c0.133-0.168,0.318-0.252,0.555-0.252
					c0.25,0,0.441,0.08,0.576,0.24C229.991,464.62,230.059,464.848,230.059,465.145z M230.136,469.96
					c0,0.645,0.147,1.14,0.442,1.486c0.295,0.347,0.682,0.521,1.161,0.521c0.407,0,0.759-0.177,1.053-0.532
					c0.295-0.355,0.442-0.862,0.442-1.523c0-0.427-0.061-0.796-0.184-1.104c-0.123-0.309-0.297-0.548-0.522-0.715
					c-0.226-0.168-0.489-0.252-0.79-0.252c-0.309,0-0.584,0.084-0.825,0.252c-0.242,0.168-0.431,0.411-0.57,0.73
					C230.205,469.141,230.136,469.52,230.136,469.96z"/>
				<path style="fill:#150D03;" d="M236.963,473.42l0.148-0.363l-1.995-5.022c-0.122-0.288-0.184-0.499-0.184-0.629
					c0-0.139,0.036-0.267,0.107-0.385c0.071-0.119,0.169-0.214,0.294-0.285c0.125-0.072,0.255-0.107,0.389-0.107
					c0.233,0,0.409,0.074,0.529,0.223c0.119,0.148,0.223,0.361,0.314,0.638l1.371,3.989l1.3-3.71c0.103-0.3,0.196-0.536,0.279-0.706
					c0.083-0.17,0.171-0.285,0.264-0.344c0.093-0.06,0.225-0.09,0.395-0.09c0.123,0,0.24,0.032,0.353,0.098
					c0.113,0.065,0.2,0.153,0.261,0.264c0.061,0.111,0.092,0.227,0.092,0.35c-0.016,0.075-0.041,0.182-0.077,0.321
					c-0.036,0.138-0.079,0.28-0.13,0.421l-2.113,5.533c-0.182,0.487-0.361,0.868-0.535,1.145c-0.174,0.277-0.404,0.491-0.691,0.638
					c-0.287,0.149-0.674,0.223-1.161,0.223c-0.475,0-0.831-0.051-1.068-0.154c-0.238-0.104-0.356-0.292-0.356-0.564
					c0-0.186,0.056-0.33,0.169-0.43c0.112-0.101,0.28-0.152,0.501-0.152c0.087,0,0.173,0.012,0.256,0.037
					c0.103,0.023,0.192,0.035,0.267,0.035c0.186,0,0.333-0.027,0.44-0.084c0.106-0.055,0.202-0.151,0.288-0.288
					C236.754,473.887,236.852,473.685,236.963,473.42z"/>
			</g>
			<g>
				<path style="fill:#150D03;" d="M260.439,466.769h0.386v-0.487c0-0.509,0.062-0.911,0.192-1.211
					c0.128-0.299,0.347-0.516,0.654-0.653c0.306-0.136,0.727-0.204,1.26-0.204c0.95,0,1.42,0.229,1.42,0.697
					c0,0.149-0.049,0.278-0.15,0.384c-0.096,0.106-0.214,0.16-0.349,0.16c-0.062,0-0.174-0.012-0.329-0.037
					c-0.148-0.021-0.283-0.035-0.389-0.035c-0.292,0-0.479,0.088-0.566,0.259c-0.079,0.172-0.122,0.418-0.122,0.74v0.386h0.396
					c0.62,0,0.926,0.185,0.926,0.56c0,0.262-0.079,0.431-0.245,0.503c-0.164,0.071-0.39,0.107-0.681,0.107h-0.396v4.294
					c0,0.319-0.075,0.563-0.231,0.73c-0.151,0.17-0.346,0.254-0.589,0.254c-0.229,0-0.419-0.084-0.574-0.254
					c-0.153-0.167-0.228-0.411-0.228-0.73v-4.294h-0.446c-0.243,0-0.426-0.053-0.558-0.164c-0.131-0.107-0.197-0.25-0.197-0.423
					C259.624,466.962,259.896,466.769,260.439,466.769"/>
				<path style="fill:#150D03;" d="M265.745,470.878v1.355c0,0.327-0.083,0.574-0.234,0.737c-0.154,0.166-0.349,0.247-0.586,0.247
					c-0.239,0-0.43-0.082-0.579-0.25c-0.148-0.165-0.225-0.41-0.225-0.734v-4.514c0-0.729,0.262-1.093,0.788-1.093
					c0.271,0,0.464,0.084,0.583,0.255c0.119,0.171,0.184,0.421,0.198,0.755c0.192-0.334,0.39-0.584,0.593-0.755
					c0.208-0.171,0.477-0.255,0.819-0.255c0.343,0,0.67,0.084,0.991,0.255c0.322,0.171,0.482,0.398,0.482,0.678
					c0,0.197-0.069,0.362-0.204,0.488c-0.138,0.131-0.284,0.195-0.441,0.195c-0.062,0-0.207-0.039-0.433-0.112
					c-0.228-0.071-0.43-0.108-0.602-0.108c-0.237,0-0.433,0.064-0.582,0.186c-0.151,0.128-0.269,0.311-0.353,0.554
					c-0.081,0.247-0.137,0.541-0.17,0.878C265.759,469.979,265.745,470.392,265.745,470.878"/>
				<path style="fill:#150D03;" d="M273.196,470.32h-3.171c0.005,0.367,0.077,0.694,0.222,0.974
					c0.147,0.279,0.337,0.491,0.578,0.635c0.24,0.142,0.502,0.212,0.793,0.212c0.194,0,0.37-0.021,0.531-0.07
					c0.159-0.043,0.316-0.116,0.466-0.213c0.151-0.095,0.288-0.199,0.415-0.313c0.126-0.109,0.292-0.26,0.494-0.449
					c0.084-0.071,0.203-0.109,0.355-0.109c0.168,0,0.301,0.046,0.406,0.139c0.104,0.092,0.152,0.219,0.152,0.386
					c0,0.147-0.056,0.317-0.167,0.512c-0.117,0.198-0.289,0.385-0.523,0.566c-0.234,0.178-0.524,0.329-0.873,0.446
					c-0.35,0.119-0.754,0.179-1.207,0.179c-1.044,0-1.853-0.296-2.429-0.889c-0.577-0.595-0.87-1.401-0.87-2.418
					c0-0.479,0.073-0.924,0.217-1.334c0.14-0.411,0.349-0.76,0.624-1.055c0.272-0.294,0.606-0.518,1.008-0.674
					c0.399-0.156,0.842-0.234,1.33-0.234c0.632,0,1.176,0.134,1.629,0.404c0.452,0.264,0.796,0.61,1.018,1.034
					c0.226,0.426,0.339,0.855,0.339,1.296c0,0.405-0.118,0.669-0.351,0.791C273.947,470.26,273.619,470.32,273.196,470.32
					 M270.024,469.399h2.938c-0.039-0.553-0.186-0.969-0.446-1.242c-0.261-0.276-0.599-0.413-1.025-0.413
					c-0.403,0-0.736,0.137-0.995,0.418C270.237,468.442,270.079,468.853,270.024,469.399"/>
				<path style="fill:#150D03;" d="M279.938,470.32h-3.171c0.003,0.367,0.078,0.694,0.221,0.974
					c0.145,0.279,0.337,0.491,0.576,0.635c0.239,0.142,0.503,0.212,0.795,0.212c0.192,0,0.371-0.021,0.528-0.07
					c0.162-0.043,0.316-0.116,0.469-0.213c0.151-0.095,0.287-0.199,0.415-0.313c0.125-0.109,0.29-0.26,0.493-0.449
					c0.084-0.071,0.204-0.109,0.355-0.109c0.168,0,0.302,0.046,0.406,0.139c0.103,0.092,0.15,0.219,0.15,0.386
					c0,0.147-0.054,0.317-0.171,0.512c-0.111,0.198-0.285,0.385-0.519,0.566c-0.231,0.178-0.525,0.329-0.872,0.446
					c-0.349,0.119-0.755,0.179-1.209,0.179c-1.042,0-1.849-0.296-2.429-0.889c-0.577-0.595-0.868-1.401-0.868-2.418
					c0-0.479,0.073-0.924,0.217-1.334c0.142-0.411,0.349-0.76,0.623-1.055c0.272-0.294,0.608-0.518,1.009-0.674
					c0.399-0.156,0.844-0.234,1.331-0.234c0.63,0,1.174,0.134,1.633,0.404c0.45,0.264,0.791,0.61,1.013,1.034
					c0.225,0.426,0.341,0.855,0.341,1.296c0,0.405-0.12,0.669-0.351,0.791C280.688,470.26,280.36,470.32,279.938,470.32
					 M276.767,469.399h2.938c-0.04-0.553-0.19-0.969-0.447-1.242c-0.263-0.276-0.601-0.413-1.027-0.413
					c-0.403,0-0.735,0.137-0.996,0.418C276.978,468.442,276.819,468.853,276.767,469.399"/>
				<path style="fill:#150D03;" d="M283.487,467.538v0.194c0.304-0.375,0.621-0.651,0.953-0.828
					c0.324-0.178,0.699-0.267,1.114-0.267c0.497,0,0.96,0.13,1.379,0.386c0.419,0.259,0.749,0.635,0.993,1.129
					c0.244,0.497,0.366,1.081,0.366,1.758c0,0.497-0.07,0.957-0.21,1.376c-0.14,0.418-0.336,0.767-0.581,1.05
					c-0.246,0.281-0.535,0.501-0.868,0.654c-0.339,0.151-0.695,0.227-1.08,0.227c-0.461,0-0.853-0.093-1.166-0.28
					c-0.314-0.182-0.614-0.458-0.901-0.816v2.433c0,0.71-0.26,1.069-0.777,1.069c-0.306,0-0.505-0.092-0.607-0.275
					c-0.095-0.187-0.146-0.452-0.146-0.807v-6.996c0-0.309,0.066-0.537,0.2-0.692c0.134-0.15,0.32-0.228,0.553-0.228
					c0.231,0,0.416,0.078,0.56,0.234C283.417,467.018,283.487,467.241,283.487,467.538 M286.665,469.892
					c0-0.428-0.067-0.796-0.197-1.102c-0.131-0.308-0.312-0.542-0.541-0.705c-0.23-0.164-0.489-0.248-0.77-0.248
					c-0.446,0-0.824,0.178-1.13,0.527c-0.308,0.354-0.462,0.872-0.462,1.558c0,0.641,0.153,1.146,0.46,1.504
					c0.305,0.358,0.679,0.536,1.133,0.536c0.268,0,0.519-0.079,0.748-0.233c0.232-0.158,0.416-0.392,0.552-0.704
					C286.595,470.714,286.665,470.335,286.665,469.892"/>
				<path style="fill:#150D03;" d="M289.925,465.871c-0.226,0-0.418-0.071-0.577-0.209c-0.162-0.139-0.242-0.333-0.242-0.585
					c0-0.23,0.082-0.419,0.248-0.569c0.164-0.146,0.354-0.222,0.571-0.222c0.212,0,0.397,0.067,0.559,0.2
					c0.162,0.137,0.244,0.334,0.244,0.591c0,0.25-0.079,0.444-0.236,0.585C290.332,465.8,290.145,465.871,289.925,465.871
					 M290.727,467.546v4.689c0,0.322-0.077,0.568-0.231,0.732c-0.156,0.168-0.35,0.25-0.588,0.25c-0.238,0-0.428-0.084-0.58-0.254
					c-0.146-0.173-0.222-0.416-0.222-0.729v-4.642c0-0.319,0.076-0.559,0.222-0.721c0.152-0.165,0.342-0.245,0.58-0.245
					c0.238,0,0.432,0.079,0.588,0.245C290.65,467.033,290.727,467.259,290.727,467.546"/>
				<path style="fill:#150D03;" d="M295.952,472.477l-1.428-2.354l-0.88,0.83v1.291c0,0.312-0.083,0.551-0.248,0.718
					c-0.16,0.17-0.354,0.254-0.566,0.254c-0.249,0-0.447-0.082-0.588-0.25c-0.142-0.165-0.215-0.41-0.215-0.734v-6.915
					c0-0.358,0.072-0.632,0.207-0.821c0.139-0.191,0.341-0.283,0.596-0.283c0.25,0,0.445,0.086,0.593,0.257
					c0.146,0.169,0.221,0.421,0.221,0.751v3.933l1.823-1.914c0.227-0.235,0.395-0.4,0.517-0.486c0.118-0.087,0.262-0.13,0.431-0.13
					c0.204,0,0.371,0.065,0.51,0.193c0.132,0.129,0.2,0.291,0.2,0.483c0,0.237-0.221,0.556-0.659,0.951l-0.861,0.789l1.662,2.614
					c0.121,0.196,0.212,0.34,0.265,0.441c0.052,0.1,0.081,0.2,0.081,0.289c0,0.258-0.071,0.459-0.213,0.61
					c-0.14,0.148-0.327,0.221-0.554,0.221c-0.198,0-0.352-0.051-0.458-0.16C296.282,472.949,296.133,472.755,295.952,472.477"/>
				<path style="fill:#150D03;" d="M299.474,473.217c-0.245,0-0.455-0.079-0.634-0.238c-0.178-0.156-0.268-0.378-0.268-0.665
					c0-0.241,0.086-0.449,0.256-0.622c0.172-0.174,0.38-0.262,0.63-0.262c0.248,0,0.46,0.087,0.639,0.258
					c0.174,0.172,0.264,0.383,0.264,0.626c0,0.283-0.089,0.505-0.264,0.662C299.919,473.138,299.711,473.217,299.474,473.217"/>
				<path style="fill:#150D03;" d="M307.536,471.211c0,0.2-0.061,0.417-0.182,0.646c-0.12,0.231-0.305,0.449-0.554,0.656
					c-0.247,0.207-0.557,0.377-0.934,0.502c-0.375,0.126-0.8,0.192-1.269,0.192c-1.004,0-1.786-0.294-2.349-0.876
					c-0.56-0.585-0.841-1.368-0.841-2.35c0-0.667,0.128-1.254,0.387-1.765c0.255-0.509,0.628-0.904,1.113-1.184
					c0.487-0.28,1.072-0.419,1.746-0.419c0.421,0,0.805,0.061,1.158,0.184c0.35,0.122,0.645,0.282,0.891,0.474
					c0.242,0.197,0.428,0.402,0.556,0.62c0.129,0.22,0.192,0.426,0.192,0.617c0,0.192-0.071,0.357-0.214,0.492
					c-0.147,0.134-0.322,0.203-0.524,0.203c-0.137,0-0.249-0.035-0.338-0.104c-0.09-0.07-0.19-0.181-0.299-0.339
					c-0.198-0.299-0.404-0.526-0.622-0.674c-0.214-0.152-0.488-0.226-0.821-0.226c-0.476,0-0.865,0.186-1.159,0.561
					c-0.292,0.372-0.439,0.887-0.439,1.534c0,0.305,0.039,0.587,0.114,0.842c0.073,0.254,0.182,0.472,0.325,0.652
					c0.144,0.179,0.315,0.315,0.516,0.409c0.203,0.096,0.425,0.141,0.665,0.141c0.326,0,0.604-0.075,0.836-0.225
					c0.235-0.151,0.439-0.38,0.616-0.689c0.099-0.182,0.205-0.323,0.318-0.427c0.114-0.102,0.256-0.156,0.422-0.156
					c0.198,0,0.363,0.077,0.491,0.227C307.469,470.88,307.536,471.042,307.536,471.211"/>
				<path style="fill:#150D03;" d="M314.53,469.923c0,0.481-0.076,0.928-0.222,1.337c-0.155,0.408-0.37,0.758-0.656,1.049
					c-0.285,0.293-0.626,0.518-1.02,0.675c-0.4,0.154-0.844,0.234-1.337,0.234c-0.491,0-0.933-0.08-1.326-0.239
					c-0.389-0.156-0.732-0.384-1.016-0.676c-0.288-0.298-0.505-0.646-0.657-1.048c-0.143-0.402-0.219-0.846-0.219-1.332
					c0-0.491,0.077-0.941,0.224-1.349c0.151-0.409,0.368-0.757,0.649-1.046c0.282-0.289,0.621-0.511,1.019-0.669
					c0.402-0.156,0.844-0.234,1.326-0.234c0.49,0,0.936,0.078,1.337,0.239c0.398,0.157,0.739,0.384,1.027,0.674
					c0.286,0.297,0.502,0.643,0.65,1.045C314.455,468.991,314.53,469.434,314.53,469.923 M312.903,469.923
					c0-0.662-0.146-1.176-0.436-1.543c-0.289-0.372-0.681-0.555-1.171-0.555c-0.317,0-0.597,0.082-0.839,0.246
					c-0.242,0.164-0.425,0.406-0.556,0.728c-0.131,0.321-0.197,0.696-0.197,1.124c0,0.424,0.064,0.792,0.193,1.108
					c0.13,0.319,0.314,0.561,0.553,0.729c0.241,0.167,0.522,0.253,0.845,0.253c0.49,0,0.882-0.185,1.171-0.557
					C312.756,471.086,312.903,470.574,312.903,469.923"/>
				<path style="fill:#150D03;" d="M320.712,470.042v2.154c0,0.342-0.075,0.594-0.231,0.767c-0.156,0.17-0.357,0.255-0.611,0.255
					c-0.245,0-0.446-0.085-0.594-0.255c-0.154-0.173-0.233-0.425-0.233-0.767v-2.582c0-0.408-0.013-0.726-0.04-0.953
					c-0.029-0.221-0.105-0.41-0.226-0.552c-0.123-0.147-0.318-0.22-0.582-0.22c-0.532,0-0.879,0.181-1.048,0.55
					c-0.167,0.36-0.254,0.883-0.254,1.567v2.189c0,0.336-0.076,0.591-0.226,0.765c-0.156,0.171-0.355,0.258-0.603,0.258
					c-0.247,0-0.448-0.087-0.604-0.258c-0.157-0.173-0.235-0.428-0.235-0.765v-4.637c0-0.306,0.07-0.538,0.209-0.695
					c0.143-0.16,0.329-0.239,0.556-0.239c0.223,0,0.407,0.077,0.557,0.222c0.148,0.149,0.222,0.354,0.222,0.615v0.153
					c0.283-0.334,0.584-0.582,0.903-0.738c0.323-0.162,0.676-0.241,1.07-0.241c0.407,0,0.757,0.082,1.049,0.244
					c0.294,0.163,0.533,0.409,0.725,0.735c0.274-0.33,0.568-0.577,0.881-0.738c0.313-0.161,0.658-0.241,1.039-0.241
					c0.441,0,0.826,0.089,1.146,0.262c0.319,0.174,0.558,0.425,0.717,0.747c0.138,0.295,0.206,0.756,0.206,1.385v3.164
					c0,0.342-0.076,0.594-0.229,0.767c-0.154,0.17-0.359,0.255-0.612,0.255c-0.247,0-0.446-0.087-0.603-0.258
					c-0.156-0.173-0.235-0.428-0.235-0.765v-2.726c0-0.349-0.015-0.627-0.043-0.836c-0.029-0.211-0.11-0.388-0.239-0.529
					c-0.133-0.142-0.331-0.215-0.596-0.215c-0.214,0-0.416,0.066-0.609,0.192c-0.192,0.124-0.342,0.298-0.45,0.508
					C320.774,468.864,320.712,469.348,320.712,470.042"/>
			</g>
			<g>
				<path style="fill:#150D03;" d="M245.272,469.531c-0.001-0.003-0.001-0.006-0.001-0.011
					C245.271,469.525,245.271,469.527,245.272,469.531z"/>
				<path style="fill:#150D03;" d="M245.354,470.049c0.001,0,0.001,0,0.001,0c-0.031-0.148-0.055-0.294-0.074-0.439
					C245.3,469.756,245.324,469.903,245.354,470.049z"/>
				<path style="fill:#150D03;" d="M245.89,471.553c-0.004-0.006-0.007-0.013-0.011-0.021
					C245.883,471.539,245.886,471.547,245.89,471.553z"/>
				<path style="fill:#150D03;" d="M245.839,471.453c-0.014-0.027-0.027-0.056-0.041-0.084
					C245.811,471.398,245.825,471.425,245.839,471.453z"/>
				<path style="fill:#150D03;" d="M245.504,470.628c0.079,0.25,0.175,0.493,0.286,0.724c-0.113-0.236-0.206-0.479-0.283-0.724
					C245.506,470.628,245.505,470.628,245.504,470.628z"/>
				<path style="fill:#150D03;" d="M251.545,463.32c0.313,0,0.544,0.025,0.809,0.069l0.075-0.477c0,0-0.732-0.225-1.694-0.147
					l-0.076-0.259c0.299-0.063,0.524-0.329,0.524-0.646c0-0.364-0.296-0.659-0.661-0.659c-0.364,0-0.66,0.295-0.66,0.659
					c0,0.317,0.224,0.583,0.522,0.646l0.084,0.289c-1.021,0.14-1.834,0.539-1.834,0.539l0.144,0.441
					c0.618-0.206,1.154-0.331,1.64-0.383C250.895,463.342,251.253,463.32,251.545,463.32z"/>
				<path style="fill:#150D03;" d="M245.878,465.732l0.004-0.005c0.024-0.031,0.047-0.06,0.071-0.089l-0.196-0.141l-0.305-0.223
					c-0.017,0.024-0.497,0.465-0.876,1.28c-0.016-0.026-0.035-0.051-0.056-0.074c-0.114-0.124-0.272-0.187-0.474-0.184
					c-0.003,0-0.006,0-0.009,0c-0.125,0-0.21-0.041-0.267-0.092c0.056-0.071,0.089-0.16,0.089-0.258c0-0.23-0.187-0.418-0.418-0.418
					c-0.23,0-0.418,0.188-0.418,0.418c0,0.231,0.187,0.418,0.418,0.418c0.036,0,0.071-0.006,0.104-0.013
					c0.103,0.114,0.266,0.214,0.505,0.209c0.123-0.001,0.213,0.031,0.273,0.097c0.069,0.076,0.093,0.185,0.1,0.267
					c-0.001,0.001-0.001,0.003-0.002,0.003c-0.272,0.743-0.194,1.669-0.194,1.669l0.661,0.026c0.013-0.337,0.062-0.926,0.232-1.394
					C245.449,466.322,245.861,465.756,245.878,465.732z"/>
				<path style="fill:#150D03;" d="M257.295,463.873c-0.23,0-0.418,0.187-0.418,0.418c0,0.036,0.006,0.07,0.015,0.103
					c-0.115,0.104-0.214,0.267-0.211,0.507c0.002,0.123-0.03,0.212-0.096,0.273c-0.053,0.047-0.12,0.072-0.185,0.088
					c-0.492-0.689-1.097-1.11-1.097-1.11l-0.474,0.508c0.358,0.326,0.725,0.734,1.08,1.244c0.246,0.352,0.499,0.806,0.71,1.259
					l0.64-0.304c0,0-0.292-0.722-0.704-1.37c0.072-0.025,0.144-0.064,0.207-0.12c0.125-0.113,0.187-0.273,0.183-0.474
					c-0.001-0.13,0.042-0.218,0.093-0.276c0.071,0.054,0.16,0.089,0.258,0.089c0.232,0,0.419-0.187,0.419-0.418
					C257.714,464.059,257.527,463.873,257.295,463.873z"/>
				<path style="fill:#150D03;" d="M255.634,469.624c-0.881,0.429-2.33,0.996-4.238,1.262c-0.749,0.104-1.475,0.142-2.143,0.142
					c-0.869,0-1.637-0.065-2.227-0.139c-0.673-0.085-1.199-0.188-1.52-0.261c0.077,0.245,0.171,0.488,0.283,0.724
					c0.002,0.006,0.005,0.013,0.008,0.017c0.013,0.028,0.027,0.056,0.041,0.084c0.013,0.027,0.027,0.054,0.041,0.079
					c0.004,0.007,0.007,0.015,0.011,0.021c0.189,0.357,0.417,0.684,0.675,0.968c0.9,0.984,1.817,1.14,1.826,1.141l0.014,0.002
					l0.013,0.005c0.008,0.003,0.821,0.266,2.057,0.266c1.216,0,2.409-0.245,3.546-0.729c0.842-0.431,1.639-1.085,2.034-1.669
					c0.305-0.452,0.526-0.933,0.656-1.434c0.069-0.266,0.124-0.692,0.092-1.141C256.556,469.128,256.164,469.366,255.634,469.624z"
					/>
				<path style="fill:#150D03;" d="M246.161,465.94c-0.026,0.037-0.408,0.578-0.71,1.408c-0.226,0.622-0.216,1.527-0.216,1.538
					v0.002c0,0.212,0.012,0.423,0.035,0.632c0,0.005,0,0.008,0.001,0.011c0.002,0.027,0.007,0.052,0.009,0.079
					c0.019,0.145,0.043,0.291,0.074,0.439c0.438,0.111,3.049,0.72,5.968,0.314c1.829-0.254,3.218-0.795,4.062-1.204
					c0.701-0.34,1.151-0.648,1.325-0.774c-0.173-0.643-0.651-1.65-1.089-2.279c-1.253-1.791-2.604-2.25-3.298-2.364
					c-0.265-0.043-0.477-0.068-0.777-0.068c-0.28,0-0.626,0.023-1.089,0.071c-0.464,0.048-0.982,0.17-1.583,0.372
					c-0.842,0.282-1.605,0.724-2.204,1.28l-0.021,0.019C246.56,465.497,246.374,465.669,246.161,465.94z M253.829,465.524
					c0.601,0,1.089,0.488,1.089,1.089c0,0.601-0.489,1.09-1.089,1.09c-0.601,0-1.089-0.489-1.089-1.09
					C252.74,466.012,253.228,465.524,253.829,465.524z M248.678,465.48c0.973,0,1.76,0.789,1.76,1.761
					c0,0.972-0.788,1.759-1.76,1.759c-0.972,0-1.76-0.787-1.76-1.759C246.918,466.269,247.707,465.48,248.678,465.48z"/>
			</g>
		</g>
	</g>
</g>
</svg>
